<svg width="24" height="24" viewBox="0 0 24 24" fill="none" xmlns="http://www.w3.org/2000/svg">
<path fill-rule="evenodd" clip-rule="evenodd" d="M16.9814 8.48037C17.3902 8.33039 17.8402 8.33869 18.2432 8.50363C18.792 8.72807 19.049 9.21647 19.163 9.44556C19.2932 9.70953 19.4223 10.0537 19.5549 10.4084L19.5723 10.4549L23.9331 22.0837C24.0348 22.3708 24.0198 22.6864 23.8913 22.9626C23.7628 23.2388 23.531 23.4535 23.2458 23.5606C22.9606 23.6677 22.6448 23.6587 22.3662 23.5353C22.0877 23.412 21.8686 23.1843 21.7562 22.9012L17.5547 11.6992L12.8707 22.9407C12.7519 23.2254 12.525 23.4512 12.2397 23.5685C11.9545 23.6859 11.6343 23.6851 11.3496 23.5663C11.065 23.4476 10.8391 23.2206 10.7218 22.9354C10.6045 22.6501 10.6053 22.33 10.724 22.0453L15.5837 10.384L15.6023 10.3375C15.7303 10.0154 15.8727 9.69914 16.0291 9.38974C16.15 9.16414 16.4244 8.6862 16.9826 8.48154L16.9814 8.48037ZM13.2905 2.77183C13.437 2.81517 13.5734 2.88695 13.6922 2.98306C13.8109 3.07916 13.9095 3.19772 13.9824 3.33195C14.0553 3.46618 14.101 3.61345 14.117 3.76536C14.1329 3.91726 14.1188 4.07083 14.0754 4.21728C12.9323 8.07337 11.7183 10.9108 9.90187 13.2133C8.07848 15.5251 5.71785 17.2066 2.43971 18.8788C2.30364 18.9482 2.15524 18.9901 2.00297 19.0022C1.8507 19.0142 1.69755 18.9962 1.55226 18.949C1.40697 18.9019 1.27238 18.8266 1.15619 18.7275C1.04 18.6283 0.94447 18.5073 0.875063 18.3712C0.805656 18.2351 0.763728 18.0867 0.751674 17.9345C0.73962 17.7822 0.757677 17.629 0.804811 17.4837C0.851946 17.3385 0.927236 17.2039 1.02638 17.0877C1.12553 16.9715 1.24659 16.876 1.38266 16.8065C4.50265 15.2146 6.53884 13.7203 8.07616 11.7725C9.62162 9.81303 10.7333 7.30471 11.8439 3.55793C11.8872 3.41146 11.959 3.27498 12.0551 3.15626C12.1512 3.03754 12.2698 2.93892 12.404 2.86602C12.5382 2.79313 12.6855 2.7474 12.8374 2.73144C12.9893 2.71547 13.1429 2.72959 13.2893 2.77299L13.2905 2.77183Z" fill="#0C1119"/>
<path fill-rule="evenodd" clip-rule="evenodd" d="M5.35614 6.61048C5.65284 6.52628 5.97082 6.5634 6.24015 6.71365C6.50948 6.86391 6.70809 7.115 6.79229 7.4117C7.60863 10.284 9.19479 12.4004 11.3322 14.004C11.5789 14.1891 11.742 14.4646 11.7856 14.7699C11.8292 15.0752 11.7498 15.3853 11.5647 15.632C11.3797 15.8788 11.1042 16.0419 10.7989 16.0855C10.4936 16.1291 10.1834 16.0497 9.9367 15.8646C7.42257 13.9784 5.52011 11.4434 4.55609 8.04662C4.47185 7.75009 4.50881 7.43224 4.65883 7.16294C4.80885 6.89364 5.05967 6.69492 5.35614 6.61048ZM0.75 3.88703C0.75 3.57861 0.872517 3.28283 1.0906 3.06475C1.30868 2.84667 1.60446 2.72415 1.91287 2.72415H16.4488C16.7572 2.72415 17.053 2.84667 17.2711 3.06475C17.4892 3.28283 17.6117 3.57861 17.6117 3.88703C17.6117 4.19544 17.4892 4.49122 17.2711 4.7093C17.053 4.92738 16.7572 5.0499 16.4488 5.0499H1.91287C1.60446 5.0499 1.30868 4.92738 1.0906 4.7093C0.872517 4.49122 0.75 4.19544 0.75 3.88703Z" fill="#0C1119"/>
<path fill-rule="evenodd" clip-rule="evenodd" d="M8.89041 0.398376C9.19883 0.398376 9.49461 0.520893 9.71269 0.738974C9.93077 0.957055 10.0533 1.25284 10.0533 1.56125V3.887C10.0533 4.19541 9.93077 4.49119 9.71269 4.70927C9.49461 4.92735 9.19883 5.04987 8.89041 5.04987C8.582 5.04987 8.28622 4.92735 8.06814 4.70927C7.85006 4.49119 7.72754 4.19541 7.72754 3.887V1.56125C7.72754 1.25284 7.85006 0.957055 8.06814 0.738974C8.28622 0.520893 8.582 0.398376 8.89041 0.398376ZM13.5419 17.8415C13.5419 17.5331 13.6644 17.2373 13.8825 17.0192C14.1006 16.8011 14.3964 16.6786 14.7048 16.6786H21.1006C21.409 16.6786 21.7048 16.8011 21.9229 17.0192C22.1409 17.2373 22.2635 17.5331 22.2635 17.8415C22.2635 18.1499 22.1409 18.4457 21.9229 18.6638C21.7048 18.8818 21.409 19.0044 21.1006 19.0044H14.7048C14.3964 19.0044 14.1006 18.8818 13.8825 18.6638C13.6644 18.4457 13.5419 18.1499 13.5419 17.8415Z" fill="#0C1119"/>
</svg>
